<?xml version="1.0" standalone="no"?>
<!DOCTYPE svg PUBLIC "-//W3C//DTD SVG 20010904//EN"
 "http://www.w3.org/TR/2001/REC-SVG-20010904/DTD/svg10.dtd">
<svg version="1.0" xmlns="http://www.w3.org/2000/svg"
 width="229.000000pt" height="229.000000pt" viewBox="0 0 229.000000 229.000000"
 preserveAspectRatio="xMidYMid meet">
<metadata>
Created by potrace 1.11, written by Peter Selinger 2001-2013
</metadata>
<g transform="translate(0.000000,229.000000) scale(0.100000,-0.100000)"
fill="#000000" stroke="none">
<path d="M1009 1907 c-163 -160 -307 -301 -319 -312 -13 -11 18 37 69 108 50
70 91 131 91 135 0 4 -23 30 -50 57 l-51 50 -334 -339 c-184 -186 -335 -339
-335 -340 0 -4 2150 0 2154 5 5 5 -916 929 -925 929 -2 0 -137 -132 -300 -293z"/>
<path d="M294 952 l-40 -3 0 -435 1 -435 74 3 74 3 1 175 1 175 193 3 192 2
-2 70 -2 70 -192 0 -192 0 1 118 1 117 213 0 213 -1 1 46 c0 25 2 53 4 62 2
10 -1 21 -7 24 -11 7 -458 12 -534 6z"/>
<path d="M1357 948 c-9 -5 -12 -114 -10 -430 0 -232 1 -427 2 -432 1 -9 400
-2 445 8 143 33 240 103 290 211 68 145 59 344 -22 465 -66 98 -175 159 -313
176 -69 9 -378 10 -392 2z m408 -148 c96 -22 162 -76 196 -160 8 -21 14 -70
14 -120 0 -110 -21 -166 -82 -219 -66 -59 -124 -75 -273 -76 l-125 0 -1 290
c0 165 4 293 9 296 14 10 207 2 262 -11z"/>
</g>
</svg>
